<svg width="24" height="25" viewBox="0 0 24 25" fill="none" xmlns="http://www.w3.org/2000/svg">
<g clip-path="url(#clip0_2022_30921)">
<path d="M12 22.5C6.477 22.5 2 18.023 2 12.5C2 6.977 6.477 2.5 12 2.5C17.523 2.5 22 6.977 22 12.5C22 18.023 17.523 22.5 12 22.5ZM9.71 20.167C8.72341 18.0743 8.15187 15.8102 8.027 13.5H4.062C4.25659 15.0389 4.89392 16.4882 5.89657 17.6717C6.89922 18.8552 8.22401 19.7221 9.71 20.167ZM10.03 13.5C10.181 15.939 10.878 18.23 12 20.252C13.1523 18.1766 13.8254 15.8695 13.97 13.5H10.03ZM19.938 13.5H15.973C15.8481 15.8102 15.2766 18.0743 14.29 20.167C15.776 19.7221 17.1008 18.8552 18.1034 17.6717C19.1061 16.4882 19.7434 15.0389 19.938 13.5ZM4.062 11.5H8.027C8.15187 9.18979 8.72341 6.92569 9.71 4.833C8.22401 5.27788 6.89922 6.14475 5.89657 7.3283C4.89392 8.51184 4.25659 9.9611 4.062 11.5ZM10.031 11.5H13.969C13.8248 9.1306 13.152 6.82353 12 4.748C10.8477 6.82345 10.1746 9.13052 10.03 11.5H10.031ZM14.29 4.833C15.2766 6.92569 15.8481 9.18979 15.973 11.5H19.938C19.7434 9.9611 19.1061 8.51184 18.1034 7.3283C17.1008 6.14475 15.776 5.27788 14.29 4.833Z" fill="#464646"/>
</g>
<defs>
<clipPath id="clip0_2022_30921">
<rect width="24" height="24" fill="white" transform="translate(0 0.5)"/>
</clipPath>
</defs>
</svg>
