<svg width="72" height="27" viewBox="0 0 72 27" fill="none" xmlns="http://www.w3.org/2000/svg">
<path d="M2.79924 20.4015C-1.04733 17.8371 -0.109434 14.3467 0.840337 12.922C0.555416 15.2015 5.58919 17.7896 8.1417 18.7987C11.5609 20.5083 11.1097 23.6663 10.4568 25.0316C11.2464 24.4617 12.3292 22.8946 12.7718 22.1823C14.2466 19.6891 8.7353 16.3649 5.64854 14.8809C1.6595 12.8864 1.29825 9.18229 1.37457 7.57955C1.51704 4.58777 5.58918 1.34667 7.60745 0.100098C7.60745 2.80695 11.7627 5.3832 13.8403 6.33297C18.8767 8.82613 17.1645 13.1595 15.6211 14.5248C15.3362 12.1028 11.4659 9.59781 9.56635 8.64804C5.57731 6.51106 5.76727 3.24622 6.36087 1.88092C1.6595 5.3001 5.52055 9.71654 8.31978 11.3193C15.0157 14.596 15.633 17.3741 15.4431 18.7987C14.8732 23.0727 11.2878 25.4471 9.56635 26.1001C9.13896 23.8206 4.54287 21.5639 2.79924 20.4015Z" fill="#EC464C"/>
<path d="M22.062 8.18717H26.0229V9.6681H22.062V8.18717ZM22.203 11.5722H26.6811V13.1001H20.3107V4.8727H26.5283V6.40064H22.203V11.5722ZM27.1755 13.1001L30.7133 8.22243V9.60933L27.3283 4.8727H29.4909L31.8298 8.17541L30.9248 8.18717L33.2285 4.8727H35.2971L31.9356 9.52706V8.16366L35.4969 13.1001H33.299L30.8778 9.60933H31.7476L29.3616 13.1001H27.1755ZM41.4308 10.8552C41.4308 11.3567 41.3094 11.7837 41.0665 12.1363C40.8236 12.4811 40.4749 12.7475 40.0204 12.9355C39.5738 13.1236 39.0449 13.2176 38.4337 13.2176C38.1203 13.2176 37.8186 13.202 37.5287 13.1706C37.2466 13.1393 36.988 13.0962 36.753 13.0413C36.5179 12.9786 36.3102 12.9042 36.13 12.818V11.8072C36.4121 11.9326 36.7608 12.0462 37.1761 12.1481C37.5992 12.2499 38.0341 12.3009 38.4807 12.3009C38.896 12.3009 39.2447 12.246 39.5268 12.1363C39.8088 12.0266 40.0204 11.8699 40.1614 11.6662C40.3025 11.4625 40.373 11.2235 40.373 10.9492C40.373 10.675 40.3142 10.4438 40.1967 10.2558C40.0792 10.0677 39.8754 9.89533 39.5855 9.73862C39.3034 9.57407 38.9077 9.40169 38.3984 9.22147C38.038 9.08826 37.7207 8.94722 37.4464 8.79834C37.18 8.64163 36.9567 8.46533 36.7765 8.26944C36.5962 8.07355 36.4591 7.85023 36.3651 7.59949C36.2789 7.34876 36.2358 7.05884 36.2358 6.72974C36.2358 6.28311 36.3494 5.90308 36.5767 5.58966C36.8039 5.2684 37.1173 5.02158 37.5169 4.84919C37.9244 4.67681 38.3906 4.59062 38.9156 4.59062C39.3779 4.59062 39.801 4.63371 40.185 4.71991C40.5689 4.8061 40.9176 4.91971 41.231 5.06076L40.9019 5.96577C40.612 5.8404 40.2947 5.73462 39.9499 5.64843C39.613 5.56223 39.2604 5.51914 38.8921 5.51914C38.5395 5.51914 38.2456 5.57007 38.0106 5.67193C37.7755 5.7738 37.5992 5.91875 37.4817 6.10681C37.3641 6.28703 37.3054 6.49859 37.3054 6.74149C37.3054 7.02358 37.3641 7.25865 37.4817 7.4467C37.5992 7.63475 37.7912 7.80322 38.0576 7.9521C38.324 8.10097 38.6844 8.2616 39.1389 8.43399C39.6325 8.61421 40.0478 8.8101 40.3848 9.02166C40.7295 9.22539 40.9881 9.47221 41.1605 9.76212C41.3407 10.052 41.4308 10.4164 41.4308 10.8552ZM45.0841 12.3714C45.2408 12.3714 45.4015 12.3596 45.566 12.3361C45.7305 12.3048 45.8638 12.2734 45.9656 12.2421V13.0296C45.8559 13.0844 45.6992 13.1275 45.4955 13.1589C45.2918 13.198 45.0959 13.2176 44.9078 13.2176C44.5787 13.2176 44.2731 13.1628 43.991 13.0531C43.7168 12.9355 43.4935 12.7357 43.3211 12.4537C43.1487 12.1716 43.0625 11.7759 43.0625 11.2666V7.59949H42.1693V7.10585L43.0743 6.69448L43.4856 5.35459H44.0968V6.80026H45.9186V7.59949H44.0968V11.2431C44.0968 11.627 44.1869 11.913 44.3672 12.1011C44.5552 12.2813 44.7942 12.3714 45.0841 12.3714ZM52.7042 9.93843C52.7042 10.4634 52.6337 10.9296 52.4926 11.3371C52.3594 11.7367 52.1635 12.0775 51.905 12.3596C51.6542 12.6417 51.3447 12.8572 50.9764 13.0061C50.616 13.1471 50.2125 13.2176 49.7658 13.2176C49.3505 13.2176 48.9666 13.1471 48.614 13.0061C48.2614 12.8572 47.9558 12.6417 47.6972 12.3596C47.4387 12.0775 47.2349 11.7367 47.0861 11.3371C46.945 10.9296 46.8745 10.4634 46.8745 9.93843C46.8745 9.24106 46.992 8.65339 47.2271 8.17541C47.4622 7.6896 47.7991 7.32133 48.2379 7.07059C48.6767 6.81202 49.1977 6.68273 49.8011 6.68273C50.3731 6.68273 50.8746 6.81202 51.3055 7.07059C51.7443 7.32133 52.0852 7.6896 52.3281 8.17541C52.5788 8.65339 52.7042 9.24106 52.7042 9.93843ZM47.9441 9.93843C47.9441 10.4321 48.0067 10.863 48.1321 11.2313C48.2653 11.5917 48.469 11.8699 48.7433 12.0658C49.0175 12.2617 49.3662 12.3596 49.7893 12.3596C50.2125 12.3596 50.5611 12.2617 50.8354 12.0658C51.1096 11.8699 51.3094 11.5917 51.4348 11.2313C51.568 10.863 51.6346 10.4321 51.6346 9.93843C51.6346 9.43695 51.568 9.00991 51.4348 8.6573C51.3016 8.3047 51.0979 8.03437 50.8236 7.84632C50.5572 7.65043 50.2085 7.55248 49.7776 7.55248C49.1351 7.55248 48.6688 7.76404 48.3789 8.18717C48.089 8.61029 47.9441 9.19404 47.9441 9.93843ZM56.8704 13.2176C56.3141 13.2176 55.8165 13.104 55.3777 12.8768C54.9468 12.6495 54.6059 12.2969 54.3552 11.819C54.1123 11.341 53.9908 10.7298 53.9908 9.98544C53.9908 9.20971 54.1201 8.57895 54.3787 8.09314C54.6373 7.60733 54.9859 7.25081 55.4247 7.02358C55.8714 6.79634 56.3768 6.68273 56.9409 6.68273C57.2622 6.68273 57.5717 6.71799 57.8695 6.78851C58.1672 6.85119 58.4101 6.92955 58.5982 7.02358L58.2808 7.88158C58.0928 7.81106 57.8734 7.74445 57.6226 7.68177C57.3719 7.61908 57.1368 7.58774 56.9174 7.58774C56.4943 7.58774 56.1456 7.67785 55.8714 7.85807C55.5971 8.03829 55.3934 8.3047 55.2602 8.6573C55.127 9.00991 55.0604 9.4487 55.0604 9.97369C55.0604 10.4752 55.127 10.9022 55.2602 11.2548C55.3934 11.6074 55.5932 11.8738 55.8596 12.054C56.126 12.2343 56.459 12.3244 56.8587 12.3244C57.2034 12.3244 57.5051 12.2891 57.7637 12.2186C58.0301 12.1481 58.273 12.0619 58.4924 11.96V12.8768C58.2808 12.9865 58.0458 13.0688 57.7872 13.1236C57.5364 13.1863 57.2308 13.2176 56.8704 13.2176ZM61.0131 8.8336C61.0131 8.95897 61.0053 9.12352 60.9896 9.32725C60.9818 9.53097 60.9739 9.70728 60.9661 9.85615H61.0131C61.0601 9.79347 61.1307 9.70336 61.2247 9.58582C61.3187 9.46829 61.4127 9.35076 61.5068 9.23322C61.6086 9.10785 61.6948 9.00599 61.7653 8.92763L63.7752 6.80026H64.9858L62.4353 9.4918L65.1621 13.1001H63.9162L61.7301 10.1617L61.0131 10.7847V13.1001H59.9906V4.16749H61.0131V8.8336ZM70.371 11.3606C70.371 11.768 70.2691 12.1089 70.0654 12.3831C69.8616 12.6574 69.5717 12.865 69.1956 13.0061C68.8195 13.1471 68.3729 13.2176 67.8557 13.2176C67.4169 13.2176 67.0369 13.1824 66.7156 13.1119C66.4022 13.0413 66.1241 12.9434 65.8812 12.818V11.8777C66.1319 12.0031 66.4336 12.1206 66.7862 12.2303C67.1466 12.3322 67.511 12.3831 67.8792 12.3831C68.4042 12.3831 68.7842 12.3009 69.0193 12.1363C69.2544 11.9639 69.3719 11.7367 69.3719 11.4546C69.3719 11.2979 69.3288 11.1569 69.2426 11.0315C69.1564 10.9061 68.9997 10.7808 68.7725 10.6554C68.5531 10.53 68.2358 10.389 67.8205 10.2323C67.413 10.0755 67.0643 9.91884 66.7744 9.76212C66.4845 9.60541 66.2612 9.41736 66.1045 9.19796C65.9478 8.97856 65.8694 8.69648 65.8694 8.35171C65.8694 7.81889 66.0849 7.40752 66.5158 7.1176C66.9546 6.82769 67.5266 6.68273 68.2318 6.68273C68.6158 6.68273 68.9723 6.72191 69.3014 6.80026C69.6383 6.87078 69.9518 6.97265 70.2417 7.10585L69.8891 7.92859C69.7167 7.85023 69.5325 7.78363 69.3367 7.72878C69.1486 7.6661 68.9566 7.61908 68.7607 7.58774C68.5649 7.54856 68.365 7.52897 68.1613 7.52897C67.7382 7.52897 67.413 7.59949 67.1858 7.74054C66.9664 7.87374 66.8567 8.05788 66.8567 8.29295C66.8567 8.46533 66.9076 8.61421 67.0095 8.73958C67.1113 8.85711 67.2798 8.97465 67.5149 9.09218C67.7578 9.20188 68.079 9.33508 68.4787 9.4918C68.8783 9.64067 69.2191 9.79347 69.5012 9.95018C69.7833 10.1069 69.9988 10.2989 70.1476 10.5261C70.2965 10.7455 70.371 11.0237 70.371 11.3606Z" fill="#2B4059"/>
<path d="M21.6665 25.9221H20.5446V17.0216H25.5185V18.0064H21.6665V21.1602H25.2816V22.145H21.6665V25.9221ZM29.5144 25.9221H26.2983V25.2739L27.3454 25.0371V17.9191L26.2983 17.6698V17.0216H29.5144V17.6698L28.4673 17.9191V25.0371L29.5144 25.2739V25.9221ZM38.2887 25.9221H36.9797L32.2178 18.5299H32.168C32.1763 18.6795 32.1846 18.8457 32.1929 19.0286C32.2095 19.2114 32.222 19.4108 32.2303 19.6269C32.2386 19.8347 32.2469 20.0507 32.2552 20.2751C32.2635 20.4995 32.2677 20.7239 32.2677 20.9483V25.9221H31.233V17.0216H32.5295L37.2789 24.3888H37.3288C37.3205 24.2891 37.3122 24.152 37.3039 23.9775C37.2955 23.7946 37.2872 23.5952 37.2789 23.3791C37.2706 23.1547 37.2623 22.9262 37.254 22.6935C37.2457 22.4608 37.2415 22.2447 37.2415 22.0453V17.0216H38.2887V25.9221ZM45.7527 23.5412C45.7527 24.073 45.6239 24.526 45.3663 24.8999C45.1087 25.2656 44.7388 25.5481 44.2568 25.7476C43.7831 25.9471 43.2222 26.0468 42.574 26.0468C42.2415 26.0468 41.9216 26.0302 41.6141 25.9969C41.3149 25.9637 41.0407 25.918 40.7913 25.8598C40.542 25.7933 40.3218 25.7144 40.1307 25.6229V24.5509C40.4298 24.6839 40.7997 24.8044 41.2401 24.9124C41.6889 25.0204 42.1501 25.0744 42.6238 25.0744C43.0643 25.0744 43.4341 25.0163 43.7333 24.8999C44.0324 24.7836 44.2568 24.6174 44.4064 24.4013C44.556 24.1852 44.6308 23.9318 44.6308 23.6409C44.6308 23.35 44.5685 23.1049 44.4438 22.9054C44.3192 22.706 44.1031 22.5231 43.7956 22.3569C43.4964 22.1824 43.0767 21.9996 42.5366 21.8084C42.1543 21.6671 41.8177 21.5176 41.5268 21.3597C41.2443 21.1934 41.0074 21.0065 40.8163 20.7987C40.6251 20.5909 40.4797 20.3541 40.38 20.0881C40.2886 19.8222 40.2429 19.5147 40.2429 19.1657C40.2429 18.692 40.3634 18.2889 40.6044 17.9565C40.8454 17.6158 41.1778 17.354 41.6016 17.1712C42.0338 16.9883 42.5282 16.8969 43.085 16.8969C43.5754 16.8969 44.0241 16.9426 44.4313 17.034C44.8386 17.1255 45.2084 17.246 45.5408 17.3955L45.1918 18.3554C44.8843 18.2224 44.5477 18.1102 44.182 18.0188C43.8247 17.9274 43.4507 17.8817 43.0601 17.8817C42.6861 17.8817 42.3745 17.9357 42.1252 18.0438C41.8759 18.1518 41.6889 18.3055 41.5642 18.505C41.4396 18.6961 41.3772 18.9205 41.3772 19.1781C41.3772 19.4773 41.4396 19.7266 41.5642 19.9261C41.6889 20.1255 41.8925 20.3042 42.175 20.4621C42.4576 20.62 42.8399 20.7904 43.3219 20.9732C43.8455 21.1644 44.2859 21.3721 44.6433 21.5965C45.0089 21.8126 45.2832 22.0744 45.466 22.3818C45.6571 22.6893 45.7527 23.0758 45.7527 23.5412Z" fill="#2B4059"/>
</svg>
