<svg width="132" height="49" viewBox="0 0 132 49" fill="none" xmlns="http://www.w3.org/2000/svg">
<g clip-path="url(#clip0_2129_1600)">
<path d="M5.16783 38.0522C-1.93354 33.318 -0.202033 26.8741 1.55139 24.244C1.02538 28.4522 10.3185 33.2303 15.0308 35.0933C21.3432 38.2495 20.5103 44.0796 19.3048 46.6002C20.7626 45.5481 22.7615 42.6549 23.5788 41.3399C26.3014 36.7371 16.1267 30.6002 10.4281 27.8604C3.0637 24.1782 2.39677 17.3399 2.53767 14.381C2.80068 8.85769 10.3185 2.87412 14.0445 0.572754C14.0445 5.57001 21.7158 10.3262 25.5514 12.0796C34.8493 16.6823 31.6884 24.6823 28.839 27.2029C28.313 22.7317 21.1678 18.107 17.661 16.3536C10.2966 12.4084 10.6473 6.38097 11.7432 3.86042C3.0637 10.1728 10.1918 18.3262 15.3596 21.2851C27.7212 27.3344 28.861 32.4632 28.5103 35.0933C27.4582 42.9837 20.839 47.3673 17.661 48.5728C16.8719 44.3645 8.38683 40.1982 5.16783 38.0522Z" fill="#EC464C"/>
<path d="M40.7299 14.5027H48.0423V17.2368H40.7299V14.5027ZM40.9903 20.7519H49.2574V23.5728H37.4968V8.38371H48.9754V11.2045H40.9903V20.7519ZM50.1701 23.5728L56.7014 14.5678V17.1283L50.4522 8.38371H54.4448L58.7628 14.481L57.092 14.5027L61.3449 8.38371H65.1639L58.9581 16.9764V14.4593L65.5328 23.5728H61.4751L57.0052 17.1283H58.6109L54.2061 23.5728H50.1701ZM76.4877 19.4283C76.4877 20.3541 76.2635 21.1425 75.815 21.7935C75.3666 22.43 74.7229 22.9218 73.8839 23.269C73.0593 23.6162 72.0829 23.7897 70.9546 23.7897C70.3759 23.7897 69.819 23.7608 69.2838 23.7029C68.763 23.6451 68.2856 23.5655 67.8516 23.4643C67.4177 23.3485 67.0343 23.2111 66.7016 23.052V21.1859C67.2224 21.4174 67.8661 21.6271 68.6328 21.8152C69.4139 22.0032 70.2168 22.0972 71.0413 22.0972C71.808 22.0972 72.4518 21.996 72.9725 21.7935C73.4933 21.5909 73.8839 21.3016 74.1443 20.9255C74.4046 20.5494 74.5348 20.1082 74.5348 19.6019C74.5348 19.0956 74.4263 18.6689 74.2093 18.3217C73.9924 17.9745 73.6163 17.6563 73.081 17.3669C72.5603 17.0632 71.8297 16.7449 70.8895 16.4122C70.224 16.1663 69.6382 15.9059 69.1319 15.6311C68.64 15.3417 68.2278 15.0163 67.895 14.6546C67.5623 14.293 67.3092 13.8807 67.1356 13.4178C66.9765 12.9549 66.8969 12.4197 66.8969 11.8121C66.8969 10.9875 67.1067 10.286 67.5262 9.70733C67.9457 9.11423 68.5243 8.65856 69.2621 8.34031C70.0143 8.02207 70.875 7.86294 71.8442 7.86294C72.6977 7.86294 73.4788 7.94251 74.1876 8.10163C74.8965 8.26075 75.5402 8.47051 76.1188 8.73089L75.5113 10.4017C74.976 10.1702 74.3902 9.97494 73.7537 9.81582C73.1316 9.6567 72.4807 9.57714 71.8008 9.57714C71.1498 9.57714 70.6074 9.67116 70.1734 9.85922C69.7394 10.0473 69.4139 10.3149 69.197 10.6621C68.98 10.9948 68.8715 11.3854 68.8715 11.8338C68.8715 12.3546 68.98 12.7885 69.197 13.1357C69.4139 13.4829 69.7684 13.7939 70.2602 14.0688C70.752 14.3436 71.4175 14.6402 72.2565 14.9584C73.1678 15.2911 73.9345 15.6528 74.5565 16.0433C75.193 16.4194 75.6704 16.8751 75.9886 17.4103C76.3213 17.9456 76.4877 18.6182 76.4877 19.4283ZM83.2322 22.2274C83.5216 22.2274 83.8181 22.2057 84.1219 22.1623C84.4257 22.1045 84.6716 22.0466 84.8596 21.9888V23.4426C84.6571 23.5438 84.3678 23.6234 83.9917 23.6812C83.6156 23.7536 83.2539 23.7897 82.9068 23.7897C82.2992 23.7897 81.735 23.6885 81.2143 23.486C80.708 23.269 80.2957 22.9001 79.9775 22.3793C79.6592 21.8586 79.5001 21.128 79.5001 20.1878V13.4178H77.851V12.5065L79.5218 11.747L80.2812 9.27336H81.4096V11.9423H84.7728V13.4178H81.4096V20.1444C81.4096 20.8532 81.5759 21.3812 81.9086 21.7284C82.2558 22.0611 82.697 22.2274 83.2322 22.2274ZM97.3001 17.7358C97.3001 18.705 97.1699 19.5657 96.9095 20.318C96.6636 21.0557 96.3019 21.685 95.8246 22.2057C95.3617 22.7265 94.7903 23.1243 94.1104 23.3992C93.445 23.6595 92.7 23.7897 91.8754 23.7897C91.1087 23.7897 90.3999 23.6595 89.749 23.3992C89.098 23.1243 88.5338 22.7265 88.0565 22.2057C87.5791 21.685 87.203 21.0557 86.9281 20.318C86.6678 19.5657 86.5376 18.705 86.5376 17.7358C86.5376 16.4484 86.7545 15.3634 87.1885 14.481C87.6225 13.5841 88.2445 12.9043 89.0546 12.4414C89.8647 11.964 90.8267 11.7253 91.9405 11.7253C92.9965 11.7253 93.9223 11.964 94.7179 12.4414C95.528 12.9043 96.1573 13.5841 96.6057 14.481C97.0686 15.3634 97.3001 16.4484 97.3001 17.7358ZM88.5121 17.7358C88.5121 18.6472 88.6279 19.4428 88.8593 20.1227C89.1052 20.7881 89.4813 21.3016 89.9876 21.6633C90.4939 22.0249 91.1377 22.2057 91.9188 22.2057C92.7 22.2057 93.3437 22.0249 93.85 21.6633C94.3563 21.3016 94.7252 20.7881 94.9566 20.1227C95.2025 19.4428 95.3255 18.6472 95.3255 17.7358C95.3255 16.81 95.2025 16.0216 94.9566 15.3707C94.7107 14.7197 94.3346 14.2206 93.8283 13.8735C93.3365 13.5118 92.6927 13.331 91.8971 13.331C90.7109 13.331 89.8502 13.7216 89.315 14.5027C88.7798 15.2839 88.5121 16.3616 88.5121 17.7358ZM104.992 23.7897C103.964 23.7897 103.046 23.58 102.236 23.1605C101.44 22.741 100.811 22.09 100.348 21.2076C99.8996 20.3252 99.6754 19.1969 99.6754 17.8226C99.6754 16.3905 99.9141 15.226 100.391 14.3291C100.869 13.4323 101.513 12.7741 102.323 12.3546C103.147 11.9351 104.08 11.7253 105.122 11.7253C105.715 11.7253 106.286 11.7904 106.836 11.9206C107.386 12.0363 107.834 12.181 108.181 12.3546L107.595 13.9386C107.248 13.8084 106.843 13.6854 106.38 13.5697C105.917 13.454 105.483 13.3961 105.078 13.3961C104.297 13.3961 103.653 13.5625 103.147 13.8952C102.641 14.2279 102.265 14.7197 102.019 15.3707C101.773 16.0216 101.65 16.8317 101.65 17.8009C101.65 18.7267 101.773 19.5151 102.019 20.1661C102.265 20.817 102.634 21.3089 103.125 21.6416C103.617 21.9743 104.232 22.1406 104.97 22.1406C105.606 22.1406 106.163 22.0755 106.641 21.9454C107.132 21.8152 107.581 21.656 107.986 21.468V23.1605C107.595 23.363 107.161 23.5149 106.684 23.6162C106.221 23.7319 105.657 23.7897 104.992 23.7897ZM112.64 15.6962C112.64 15.9276 112.625 16.2314 112.596 16.6075C112.582 16.9836 112.567 17.3091 112.553 17.5839H112.64C112.726 17.4682 112.857 17.3018 113.03 17.0849C113.204 16.8679 113.377 16.6509 113.551 16.4339C113.739 16.2025 113.898 16.0144 114.028 15.8697L117.739 11.9423H119.974L115.265 16.9113L120.299 23.5728H117.999L113.963 18.1481L112.64 19.2981V23.5728H110.752V7.08179H112.64V15.6962ZM129.916 20.3614C129.916 21.1136 129.728 21.7428 129.352 22.2491C128.975 22.7554 128.44 23.1388 127.746 23.3992C127.051 23.6595 126.227 23.7897 125.272 23.7897C124.462 23.7897 123.76 23.7246 123.167 23.5945C122.589 23.4643 122.075 23.2834 121.627 23.052V21.3161C122.09 21.5475 122.647 21.7645 123.298 21.9671C123.963 22.1551 124.636 22.2491 125.316 22.2491C126.285 22.2491 126.986 22.0972 127.42 21.7935C127.854 21.4752 128.071 21.0557 128.071 20.5349C128.071 20.2456 127.992 19.9852 127.833 19.7538C127.673 19.5223 127.384 19.2909 126.965 19.0594C126.56 18.828 125.974 18.5676 125.207 18.2783C124.455 17.989 123.811 17.6997 123.276 17.4103C122.741 17.121 122.328 16.7738 122.039 16.3688C121.75 15.9638 121.605 15.443 121.605 14.8065C121.605 13.8228 122.003 13.0634 122.799 12.5282C123.609 11.9929 124.665 11.7253 125.967 11.7253C126.675 11.7253 127.334 11.7976 127.941 11.9423C128.563 12.0725 129.142 12.2605 129.677 12.5065L129.026 14.0254C128.708 13.8807 128.368 13.7577 128.006 13.6565C127.659 13.5408 127.305 13.454 126.943 13.3961C126.581 13.3238 126.212 13.2876 125.836 13.2876C125.055 13.2876 124.455 13.4178 124.035 13.6782C123.63 13.9241 123.428 14.264 123.428 14.698C123.428 15.0163 123.522 15.2911 123.71 15.5226C123.898 15.7395 124.209 15.9565 124.643 16.1735C125.091 16.376 125.684 16.622 126.422 16.9113C127.16 17.1861 127.789 17.4682 128.31 17.7575C128.831 18.0468 129.229 18.4012 129.503 18.8208C129.778 19.2258 129.916 19.7393 129.916 20.3614Z" fill="white"/>
<path d="M39.9994 48.2439H37.9281V31.8121H47.1106V33.6302H39.9994V39.4527H46.6733V41.2707H39.9994V48.2439ZM54.4877 48.2439H48.5502V47.0472L50.4834 46.6099V33.4691L48.5502 33.0088V31.8121H54.4877V33.0088L52.5546 33.4691V46.6099L54.4877 47.0472V48.2439ZM70.6863 48.2439H68.2699L59.4787 34.5968H59.3866C59.4019 34.8729 59.4173 35.1798 59.4326 35.5173C59.4633 35.8549 59.4863 36.2231 59.5017 36.622C59.517 37.0055 59.5324 37.4044 59.5477 37.8187C59.563 38.2329 59.5707 38.6472 59.5707 39.0614V48.2439H57.6606V31.8121H60.054L68.8222 45.4132H68.9143C68.8989 45.2291 68.8836 44.976 68.8683 44.6538C68.8529 44.3162 68.8376 43.948 68.8222 43.5491C68.8069 43.1349 68.7915 42.7129 68.7762 42.2833C68.7609 41.8538 68.7532 41.4549 68.7532 41.0866V31.8121H70.6863V48.2439ZM84.4661 43.8483C84.4661 44.8302 84.2283 45.6664 83.7527 46.3568C83.2771 47.0318 82.5944 47.5535 81.7045 47.9217C80.83 48.2899 79.7944 48.474 78.5977 48.474C77.984 48.474 77.3933 48.4433 76.8256 48.382C76.2733 48.3206 75.767 48.2362 75.3067 48.1288C74.8464 48.0061 74.4398 47.8603 74.087 47.6916V45.7124C74.6393 45.9579 75.322 46.1803 76.1352 46.3798C76.9637 46.5792 77.8152 46.679 78.6897 46.679C79.5029 46.679 80.1856 46.5716 80.7379 46.3568C81.2903 46.142 81.7045 45.8351 81.9807 45.4362C82.2568 45.0373 82.3949 44.5694 82.3949 44.0324C82.3949 43.4954 82.2798 43.0428 82.0497 42.6746C81.8196 42.3064 81.4207 41.9688 80.853 41.662C80.3007 41.3398 79.5259 41.0023 78.5286 40.6494C77.8229 40.3886 77.2015 40.1124 76.6645 39.8209C76.1429 39.514 75.7056 39.1688 75.3527 38.7853C74.9998 38.4017 74.7314 37.9644 74.5472 37.4735C74.3785 36.9825 74.2941 36.4149 74.2941 35.7705C74.2941 34.896 74.5166 34.1518 74.9615 33.5381C75.4064 32.9091 76.0201 32.4258 76.8026 32.0883C77.6004 31.7507 78.5133 31.582 79.5412 31.582C80.4464 31.582 81.2749 31.6664 82.0267 31.8351C82.7785 32.0039 83.4612 32.2264 84.0749 32.5025L83.4305 34.2746C82.8629 34.0291 82.2415 33.822 81.5664 33.6532C80.9067 33.4844 80.2163 33.4001 79.4952 33.4001C78.8048 33.4001 78.2294 33.4998 77.7692 33.6992C77.3089 33.8987 76.9637 34.1825 76.7335 34.5507C76.5034 34.9036 76.3883 35.3179 76.3883 35.7935C76.3883 36.3458 76.5034 36.8061 76.7335 37.1743C76.9637 37.5425 77.3396 37.8724 77.8612 38.1639C78.3829 38.4554 79.0886 38.7699 79.9785 39.1075C80.9451 39.4603 81.7582 39.8439 82.4179 40.2581C83.093 40.657 83.5993 41.1403 83.9368 41.708C84.2897 42.2757 84.4661 42.9891 84.4661 43.8483Z" fill="white"/>
</g>
<defs>
<clipPath id="clip0_2129_1600">
<rect y="0.572754" width="132" height="48" rx="2.4" fill="white"/>
</clipPath>
</defs>
</svg>
