<svg width="60" height="61" viewBox="0 0 60 61" fill="none" xmlns="http://www.w3.org/2000/svg">
<rect y="0.537598" width="60" height="60" rx="30" fill="#001E2A"/>
<path d="M23.9578 39.5136V36.6816L31.2058 30.2496C31.7498 29.7696 32.1338 29.3176 32.3578 28.8936C32.5818 28.4696 32.6938 28.0736 32.6938 27.7056C32.6938 27.1776 32.5858 26.7096 32.3698 26.3016C32.1538 25.8856 31.8498 25.5616 31.4578 25.3296C31.0658 25.0896 30.6058 24.9696 30.0778 24.9696C29.5258 24.9696 29.0378 25.0976 28.6138 25.3536C28.1978 25.6016 27.8738 25.9336 27.6418 26.3496C27.4098 26.7576 27.3018 27.2016 27.3178 27.6816H23.9578C23.9578 26.4976 24.2178 25.4736 24.7378 24.6096C25.2578 23.7456 25.9818 23.0776 26.9098 22.6056C27.8378 22.1336 28.9178 21.8976 30.1498 21.8976C31.2778 21.8976 32.2858 22.1456 33.1738 22.6416C34.0698 23.1296 34.7738 23.8136 35.2858 24.6936C35.7978 25.5736 36.0538 26.5936 36.0538 27.7536C36.0538 28.6096 35.9338 29.3216 35.6938 29.8896C35.4538 30.4496 35.0978 30.9696 34.6258 31.4496C34.1538 31.9216 33.5738 32.4576 32.8858 33.0576L28.2058 37.1616L27.9418 36.4416H36.0538V39.5136H23.9578Z" fill="white"/>
</svg>
