<svg width="60" height="61" viewBox="0 0 60 61" fill="none" xmlns="http://www.w3.org/2000/svg">
<rect y="0.537598" width="60" height="60" rx="30" fill="#001E2A"/>
<path d="M29.6302 39.8496C28.7662 39.8496 27.9422 39.6776 27.1582 39.3336C26.3742 38.9816 25.6902 38.4896 25.1062 37.8576C24.5302 37.2256 24.1182 36.4816 23.8702 35.6256L27.0382 34.7856C27.2062 35.4176 27.5342 35.9096 28.0222 36.2616C28.5182 36.6056 29.0542 36.7776 29.6302 36.7776C30.1262 36.7776 30.5782 36.6576 30.9862 36.4176C31.4022 36.1776 31.7302 35.8536 31.9702 35.4456C32.2182 35.0376 32.3422 34.5856 32.3422 34.0896C32.3422 33.3456 32.0862 32.7096 31.5742 32.1816C31.0702 31.6456 30.4222 31.3776 29.6302 31.3776C29.3902 31.3776 29.1582 31.4136 28.9342 31.4856C28.7102 31.5496 28.4942 31.6416 28.2862 31.7616L26.8222 29.1936L32.3182 24.6336L32.5582 25.3296H24.5422V22.2576H35.3422V25.3296L31.0702 29.4576L31.0462 28.5456C32.0382 28.6976 32.8742 29.0456 33.5542 29.5896C34.2422 30.1256 34.7622 30.7896 35.1142 31.5816C35.4742 32.3656 35.6542 33.2016 35.6542 34.0896C35.6542 35.1776 35.3782 36.1576 34.8262 37.0296C34.2742 37.8936 33.5422 38.5816 32.6302 39.0936C31.7182 39.5976 30.7182 39.8496 29.6302 39.8496Z" fill="white"/>
</svg>
